<?xml version="1.0" encoding="UTF-8"?>
<svg xmlns="http://www.w3.org/2000/svg" xmlns:xlink="http://www.w3.org/1999/xlink" width="2022" height="3001" viewBox="0 0 2022 3001">
<path fill-rule="nonzero" fill="rgb(5.880737%, 5.880737%, 5.880737%)" fill-opacity="1" d="M 556.761719 1768.511719 C 553.730469 1784.371094 564.132812 1799.699219 579.992188 1802.738281 C 595.855469 1805.769531 611.183594 1795.359375 614.214844 1779.5 C 926.996094 163.359375 1753.390625 64.410156 1881.199219 58.769531 C 1940.179688 172.121094 2267.96875 937.410156 1024.609375 2016.476562 C 1012.410156 2027.03125 1011.078125 2045.488281 1021.628906 2057.683594 C 1032.179688 2069.878906 1050.640625 2071.210938 1062.839844 2060.660156 C 2418.511719 884.121094 1945.921875 52.25 1924.28125 15.800781 C 1919.460938 6.53125 1909.828125 0.140625 1898.648438 0 L 1898.28125 29.300781 L 1898.628906 0.109375 C 1895.78125 0.078125 905.082031 -31.261719 556.761719 1768.511719 "/>
<path fill-rule="nonzero" fill="rgb(5.880737%, 5.880737%, 5.880737%)" fill-opacity="1" d="M 683.011719 1395.609375 C 699.125 1395.921875 712.460938 1383.109375 712.769531 1367 C 713.082031 1350.890625 700.273438 1337.550781 684.160156 1337.238281 C 609.175781 1335.671875 489.390625 1343.621094 363.425781 1393.910156 C 236.808594 1444.46875 104.214844 1537.480469 4.796875 1705.710938 L 29.972656 1720.589844 L 4.746094 1705.679688 C -3.480469 1719.609375 1.132812 1737.578125 15.066406 1745.808594 C 22.277344 1750.070312 30.566406 1750.890625 38.027344 1748.761719 C 67.875 1742.640625 415.207031 1673.75 584.449219 1747.359375 C 599.238281 1753.808594 616.464844 1747.050781 622.90625 1732.261719 C 629.351562 1717.46875 622.589844 1700.238281 607.800781 1693.800781 C 463.472656 1631.03125 211.410156 1660.53125 91.335938 1679.839844 C 177.652344 1559.148438 283.453125 1488.671875 384.9375 1448.148438 C 501.761719 1401.511719 613.199219 1394.140625 683.011719 1395.609375 "/>
<path fill-rule="nonzero" fill="rgb(5.880737%, 5.880737%, 5.880737%)" fill-opacity="1" d="M 1374.128906 1733 C 1365.730469 1719.21875 1347.738281 1714.859375 1333.960938 1723.269531 C 1320.191406 1731.671875 1315.828125 1749.660156 1324.230469 1763.429688 C 1367.570312 1834.039062 1431.808594 1965.089844 1436.679688 2127.269531 C 1439.378906 2217.265625 1423.820312 2317.054688 1376.28125 2421.746094 C 1332.511719 2306.933594 1230.378906 2070.300781 1101.96875 1978.519531 C 1088.820312 1969.171875 1070.570312 1972.25 1061.21875 1985.390625 C 1051.871094 1998.53125 1054.949219 2016.78125 1068.101562 2026.132812 C 1218.851562 2133.878906 1334.929688 2477.421875 1343.308594 2502.703125 C 1345.269531 2510.074219 1350.078125 2516.675781 1357.238281 2520.710938 C 1371.328125 2528.65625 1389.199219 2523.667969 1397.148438 2509.578125 L 1371.628906 2495.1875 L 1397.03125 2509.492188 C 1474.148438 2372.714844 1498.539062 2241.765625 1495.050781 2125.664062 C 1489.769531 1949.980469 1420.710938 1808.898438 1374.128906 1733 "/>
<path fill-rule="nonzero" fill="rgb(5.880737%, 5.880737%, 5.880737%)" fill-opacity="1" d="M 582.59375 1738.660156 L 1086.910156 2029.8125 L 1072.371094 2055.109375 L 1087.019531 2029.738281 C 1101.03125 2037.828125 1105.828125 2055.753906 1097.738281 2069.757812 C 1097.421875 2070.320312 1097.078125 2070.859375 1096.730469 2071.386719 L 1063.339844 2129.214844 L 1063.398438 2129.246094 C 1055.308594 2143.257812 1037.378906 2148.058594 1023.371094 2139.96875 C 1022.808594 2139.644531 1022.269531 2139.304688 1021.75 2138.949219 L 949.269531 2097.101562 L 920.148438 2147.539062 C 940.203125 2166.105469 954.554688 2189.347656 963.800781 2216.082031 C 982.515625 2270.164062 979.65625 2338.449219 960.964844 2410.09375 C 942.894531 2479.375 909.863281 2552.671875 867.378906 2619.34375 C 800.027344 2725.050781 707.996094 2815.050781 612.519531 2848.097656 L 612.5625 2848.222656 C 597.273438 2853.507812 580.582031 2845.398438 575.292969 2830.109375 C 571.410156 2818.886719 574.753906 2806.898438 582.859375 2799.230469 C 588.429688 2793.644531 633.398438 2747.597656 655.1875 2693.316406 C 596.332031 2763.25 523.769531 2783.390625 451.871094 2803.3125 C 366.582031 2826.953125 282.371094 2850.320312 233.851562 2980.867188 L 233.957031 2980.902344 C 228.324219 2996.066406 211.457031 3003.796875 196.296875 2998.164062 C 191.492188 2996.378906 187.429688 2993.464844 184.308594 2989.832031 C 75.101562 2886.167969 132.703125 2765.132812 185.234375 2654.820312 C 202.632812 2618.285156 219.355469 2583.171875 227.4375 2552.621094 C 196.496094 2579.121094 147.011719 2599.613281 68.914062 2588.359375 C 61.445312 2593.335938 41.613281 2572.054688 44.035156 2555.226562 C 45.105469 2547.765625 48.90625 2541.363281 54.285156 2536.890625 C 102.152344 2491.707031 120.644531 2406.769531 140.023438 2317.730469 C 181.976562 2124.949219 227.6875 1915.070312 557.921875 1945.851562 L 590.261719 1889.839844 L 516.703125 1847.371094 L 516.671875 1847.421875 C 502.664062 1839.328125 497.859375 1821.410156 505.949219 1807.398438 C 517.4375 1787.601562 528.90625 1767.78125 540.351562 1747.949219 C 538.761719 1746.960938 567.613281 1729.859375 580.316406 1737.199219 C 581.105469 1737.648438 581.867188 1738.140625 582.59375 1738.660156 Z M 898.742188 2067.933594 L 640.894531 1919.058594 L 600.105469 1989.71875 C 597.785156 1994.46875 594.242188 1998.460938 589.925781 2001.328125 C 575.882812 2012.4375 477.445312 2093.242188 461.414062 2186.640625 C 485.027344 2174.226562 515.664062 2166.011719 550.769531 2175.070312 C 555.285156 2171.109375 577.066406 2190.746094 571.925781 2210.660156 C 570.3125 2216.917969 566.789062 2222.179688 562.152344 2225.976562 C 550.769531 2236.644531 453.289062 2332.132812 478.828125 2452.855469 C 543.550781 2379.007812 633.246094 2353.144531 712.867188 2330.203125 C 807.554688 2302.929688 884.769531 2280.648438 853.917969 2162.355469 C 849.710938 2163.324219 855.28125 2142.285156 858.230469 2138.101562 Z M 1027.328125 2074.664062 L 1032.46875 2065.757812 L 576.394531 1802.441406 L 571.253906 1811.351562 L 645.511719 1854.21875 Z M 238.109375 2679.996094 C 200.386719 2759.210938 159.527344 2845.046875 198.839844 2915.039062 C 258.628906 2796.289062 346.957031 2771.769531 436.300781 2747.007812 C 519.761719 2723.878906 604.265625 2700.433594 657.421875 2576.832031 C 659.96875 2569.675781 665.269531 2563.515625 672.699219 2560.070312 C 687.378906 2553.265625 704.800781 2559.652344 711.601562 2574.332031 L 711.574219 2574.410156 C 734.964844 2624.871094 725.054688 2678.167969 704.964844 2723.742188 C 746.59375 2686.695312 785.347656 2639.496094 818.171875 2587.980469 C 857.417969 2526.386719 887.863281 2458.945312 904.425781 2395.449219 C 916.859375 2347.785156 921.421875 2302.851562 915.851562 2265.191406 C 895.03125 2338.390625 817.820312 2360.671875 728.894531 2386.285156 C 644.996094 2410.460938 548.496094 2438.296875 495.871094 2529.210938 C 493.089844 2534.484375 488.675781 2538.953125 482.925781 2541.785156 C 468.414062 2548.925781 450.839844 2542.953125 443.699219 2528.441406 L 443.761719 2528.40625 C 389.207031 2417.589844 424.910156 2318.671875 464.515625 2255.140625 C 461.320312 2258.171875 458.992188 2260.726562 457.65625 2262.269531 C 453.554688 2268.28125 447.230469 2272.789062 439.546875 2274.414062 C 423.71875 2277.769531 408.160156 2267.667969 404.804688 2251.839844 L 404.855469 2251.820312 C 383.316406 2150.390625 451.964844 2056.160156 503.695312 2001.820312 C 268.773438 2001.535156 231.5625 2172.363281 197.242188 2330.089844 C 181.097656 2404.273438 165.511719 2475.878906 132.433594 2531.335938 C 201.085938 2521.785156 216.9375 2470.71875 218.960938 2463.007812 C 220.421875 2455.574219 224.746094 2448.71875 231.5625 2444.21875 C 245.0625 2435.3125 263.246094 2439.027344 272.152344 2452.53125 L 272.097656 2452.566406 C 315.246094 2517.976562 278.152344 2595.917969 238.109375 2679.996094 "/>
<path fill-rule="nonzero" fill="rgb(5.880737%, 5.880737%, 5.880737%)" fill-opacity="1" d="M 1753.171875 660.199219 C 1793.691406 804.558594 1708.429688 952.28125 1563.148438 989.351562 C 1496.058594 1006.46875 1421.808594 998.148438 1356.320312 960.351562 C 1290.910156 922.578125 1246.609375 862.429688 1227.890625 795.71875 C 1187.359375 651.359375 1272.628906 503.640625 1417.910156 466.578125 C 1562.738281 429.609375 1712.78125 516.289062 1753.171875 660.199219 Z M 1696.871094 675.988281 C 1665.039062 562.550781 1546.480469 494.199219 1432.328125 523.339844 C 1318.738281 552.320312 1252.511719 667.109375 1284.191406 779.929688 C 1298.941406 832.480469 1333.921875 879.910156 1385.621094 909.761719 C 1437.230469 939.558594 1495.789062 946.101562 1548.71875 932.589844 C 1662.328125 903.601562 1728.539062 788.808594 1696.871094 675.988281 "/>
<path fill-rule="evenodd" fill="rgb(34.130859%, 34.130859%, 34.130859%)" fill-opacity="1" d="M 618.1875 1759.199219 L 1040.230469 2002.863281 C 1048.589844 1995.539062 1056.890625 1988.230469 1065.109375 1980.949219 C 1065.46875 1980.609375 1065.828125 1980.289062 1066.210938 1979.96875 C 1162.398438 1894.628906 1248.761719 1811.289062 1326.210938 1730.128906 C 1327.328125 1728.710938 1328.601562 1727.378906 1330.011719 1726.160156 C 2209.789062 801.78125 1934.738281 161.660156 1881.199219 58.769531 C 1765.101562 63.890625 1072.460938 146.03125 712.101562 1372.699219 C 711.808594 1374.019531 711.429688 1375.320312 710.964844 1376.570312 C 676.765625 1493.449219 645.578125 1620.691406 618.1875 1759.199219 Z M 1624.710938 495.558594 Z M 1727.960938 865.050781 C 1608.769531 1071.328125 1292.980469 1027.601562 1227.890625 795.71875 C 1209.109375 728.828125 1216.050781 655.289062 1253.171875 590.988281 L 1253.101562 590.878906 C 1327.871094 461.460938 1494.578125 420.46875 1624.738281 495.5 L 1627.191406 497.078125 C 1755.28125 572.820312 1802.179688 736.238281 1727.878906 864.929688 L 1727.960938 865.050781 "/>
<path fill="none" stroke-width="5.0003" stroke-linecap="butt" stroke-linejoin="miter" stroke="rgb(14.501953%, 14.501953%, 14.501953%)" stroke-opacity="1" stroke-miterlimit="2.61313" d="M 6181.875 12418.007812 L 10402.304688 9981.367188 C 10485.898438 10054.609375 10568.90625 10127.695312 10651.09375 10200.507812 C 10654.6875 10203.90625 10658.28125 10207.109375 10662.109375 10210.3125 C 11623.984375 11063.710938 12487.617188 11897.109375 13262.109375 12708.710938 C 13273.28125 12722.890625 13286.015625 12736.210938 13300.117188 12748.398438 C 22097.890625 21992.1875 19347.382812 28393.398438 18811.992188 29422.304688 C 17651.015625 29371.09375 10724.609375 28549.6875 7121.015625 16283.007812 C 7118.085938 16269.804688 7114.296875 16256.796875 7109.648438 16244.296875 C 6767.65625 15075.507812 6455.78125 13803.085938 6181.875 12418.007812 Z M 16247.109375 25054.414062 Z M 17279.609375 21359.492188 C 16087.695312 19296.71875 12929.804688 19733.984375 12278.90625 22052.8125 C 12091.09375 22721.71875 12160.507812 23457.109375 12531.71875 24100.117188 L 12531.015625 24101.210938 C 13278.710938 25395.390625 14945.78125 25805.3125 16247.382812 25055 L 16271.914062 25039.21875 C 17552.8125 24281.796875 18021.796875 22647.617188 17278.789062 21360.703125 Z M 17279.609375 21359.492188 " transform="matrix(0.1, 0, 0, -0.1, 0, 3001)"/>
<path fill-rule="evenodd" fill="rgb(42.747498%, 42.747498%, 42.747498%)" fill-opacity="1" d="M 91.335938 1679.839844 C 202.605469 1661.949219 427.214844 1635.300781 574.40625 1681.441406 C 595.863281 1580.238281 619.398438 1485.140625 644.695312 1395.761719 C 575.800781 1397.699219 482.238281 1409.300781 384.9375 1448.148438 C 283.453125 1488.671875 177.652344 1559.148438 91.335938 1679.839844 "/>
<path fill="none" stroke-width="5.0003" stroke-linecap="butt" stroke-linejoin="miter" stroke="rgb(14.501953%, 14.501953%, 14.501953%)" stroke-opacity="1" stroke-miterlimit="2.61313" d="M 913.359375 13211.601562 C 2026.054688 13390.507812 4272.148438 13656.992188 5744.0625 13195.585938 C 5958.632812 14207.617188 6193.984375 15158.59375 6446.953125 16052.382812 C 5758.007812 16033.007812 4822.382812 15916.992188 3849.375 15528.515625 C 2834.53125 15123.28125 1776.523438 14418.515625 913.359375 13211.601562 Z M 913.359375 13211.601562 " transform="matrix(0.1, 0, 0, -0.1, 0, 3001)"/>
<path fill-rule="evenodd" fill="rgb(83.59375%, 83.59375%, 83.59375%)" fill-opacity="1" d="M 443.699219 2528.441406 Z M 272.097656 2452.566406 Z M 482.925781 2541.785156 C 468.414062 2548.925781 450.839844 2542.953125 443.761719 2528.40625 C 389.207031 2417.589844 424.910156 2318.671875 464.515625 2255.140625 C 461.320312 2258.171875 458.992188 2260.726562 457.65625 2262.269531 C 453.554688 2268.28125 447.230469 2272.789062 439.546875 2274.414062 C 423.71875 2277.769531 408.160156 2267.667969 404.855469 2251.820312 C 383.316406 2150.390625 451.964844 2056.160156 503.695312 2001.820312 C 268.773438 2001.535156 231.5625 2172.363281 197.242188 2330.089844 C 181.097656 2404.273438 165.511719 2475.878906 132.433594 2531.335938 C 201.085938 2521.785156 216.9375 2470.71875 218.960938 2463.007812 C 220.421875 2455.574219 224.746094 2448.71875 231.5625 2444.21875 C 245.0625 2435.3125 263.246094 2439.027344 272.097656 2452.566406 C 315.246094 2517.976562 278.152344 2595.917969 238.109375 2679.996094 C 200.386719 2759.210938 159.527344 2845.046875 198.839844 2915.039062 C 258.628906 2796.289062 346.957031 2771.769531 436.300781 2747.007812 C 519.761719 2723.878906 604.265625 2700.433594 657.421875 2576.832031 C 659.96875 2569.675781 665.269531 2563.515625 672.699219 2560.070312 C 687.378906 2553.265625 704.800781 2559.652344 711.601562 2574.332031 L 711.574219 2574.410156 C 734.964844 2624.871094 725.054688 2678.167969 704.964844 2723.742188 C 746.59375 2686.695312 785.347656 2639.496094 818.171875 2587.980469 C 857.417969 2526.386719 887.863281 2458.945312 904.425781 2395.449219 C 916.859375 2347.785156 921.421875 2302.851562 915.851562 2265.191406 C 895.03125 2338.390625 817.820312 2360.671875 728.894531 2386.285156 C 644.996094 2410.460938 548.496094 2438.296875 495.871094 2529.210938 C 493.089844 2534.484375 488.675781 2538.953125 482.925781 2541.785156 "/>
<path fill="none" stroke-width="5.0003" stroke-linecap="butt" stroke-linejoin="miter" stroke="rgb(14.501953%, 14.501953%, 14.501953%)" stroke-opacity="1" stroke-miterlimit="2.61313" d="M 4436.992188 4725.585938 Z M 2720.976562 5484.335938 Z M 4829.257812 4592.148438 C 4684.140625 4520.742188 4508.398438 4580.46875 4437.617188 4725.9375 C 3892.070312 5834.101562 4249.101562 6823.28125 4645.15625 7458.59375 C 4613.203125 7428.28125 4589.921875 7402.734375 4576.5625 7387.304688 C 4535.546875 7327.1875 4472.304688 7282.109375 4395.46875 7265.859375 C 4237.1875 7232.304688 4081.601562 7333.320312 4048.554688 7491.796875 C 3833.164062 8506.09375 4519.648438 9448.398438 5036.953125 9991.796875 C 2687.734375 9994.648438 2315.625 8286.367188 1972.421875 6709.101562 C 1810.976562 5967.265625 1655.117188 5251.210938 1324.335938 4696.640625 C 2010.859375 4792.148438 2169.375 5302.8125 2189.609375 5379.921875 C 2204.21875 5454.257812 2247.460938 5522.8125 2315.625 5567.8125 C 2450.625 5656.875 2632.460938 5619.726562 2720.976562 5484.335938 C 3152.460938 4830.234375 2781.523438 4050.820312 2381.09375 3210.039062 C 2003.867188 2417.890625 1595.273438 1559.53125 1988.398438 859.609375 C 2586.289062 2047.109375 3469.570312 2292.304688 4363.007812 2539.921875 C 5197.617188 2771.210938 6042.65625 3005.664062 6574.21875 4241.679688 C 6599.6875 4313.242188 6652.695312 4374.84375 6726.992188 4409.296875 C 6873.789062 4477.34375 7048.007812 4413.476562 7116.015625 4266.679688 L 7115.742188 4265.898438 C 7349.648438 3761.289062 7250.546875 3228.320312 7049.648438 2772.578125 C 7465.9375 3143.046875 7853.476562 3615.039062 8181.71875 4130.195312 C 8574.179688 4746.132812 8878.632812 5420.546875 9044.257812 6055.507812 C 9168.59375 6532.148438 9214.21875 6981.484375 9158.515625 7358.085938 C 8950.3125 6626.09375 8178.203125 6403.28125 7288.945312 6147.148438 C 6449.960938 5905.390625 5484.960938 5627.03125 4958.710938 4717.890625 C 4930.898438 4665.15625 4886.757812 4620.46875 4829.257812 4592.148438 Z M 4829.257812 4592.148438 " transform="matrix(0.1, 0, 0, -0.1, 0, 3001)"/>
<path fill-rule="evenodd" fill="rgb(42.747498%, 42.747498%, 42.747498%)" fill-opacity="1" d="M 1130.101562 2001.230469 C 1245.210938 2104.742188 1335.761719 2315.453125 1376.28125 2421.746094 C 1423.820312 2317.054688 1439.378906 2217.265625 1436.679688 2127.269531 C 1432.488281 1987.691406 1384.328125 1871.191406 1343.359375 1796.410156 C 1278.328125 1863.359375 1207.410156 1931.671875 1130.101562 2001.230469 "/>
<path fill="none" stroke-width="5.0003" stroke-linecap="butt" stroke-linejoin="miter" stroke="rgb(14.501953%, 14.501953%, 14.501953%)" stroke-opacity="1" stroke-miterlimit="2.61313" d="M 11301.015625 9997.695312 C 12452.109375 8962.578125 13357.617188 6855.46875 13762.8125 5792.539062 C 14238.203125 6839.453125 14393.789062 7837.34375 14366.796875 8737.304688 C 14324.882812 10133.085938 13843.28125 11298.085938 13433.59375 12045.898438 C 12783.28125 11376.40625 12074.101562 10693.28125 11301.015625 9997.695312 Z M 11301.015625 9997.695312 " transform="matrix(0.1, 0, 0, -0.1, 0, 3001)"/>
<path fill-rule="evenodd" fill="rgb(40.380859%, 40.380859%, 40.380859%)" fill-opacity="1" d="M 1027.75 2063.03125 L 576.394531 1802.441406 L 571.253906 1811.351562 L 644.652344 1853.730469 L 644.847656 1853.839844 L 645.054688 1853.960938 L 1027.328125 2074.664062 L 1032.46875 2065.757812 L 1030.511719 2064.625 C 1029.558594 2064.144531 1028.628906 2063.613281 1027.75 2063.03125 "/>
<path fill="none" stroke-width="5.0003" stroke-linecap="butt" stroke-linejoin="miter" stroke="rgb(14.501953%, 14.501953%, 14.501953%)" stroke-opacity="1" stroke-miterlimit="2.61313" d="M 10277.5 9379.6875 L 5763.945312 11985.585938 L 5712.539062 11896.484375 L 6446.523438 11472.695312 L 6448.476562 11471.601562 L 6450.546875 11470.390625 L 10273.28125 9263.359375 L 10324.6875 9352.421875 L 10305.117188 9363.75 C 10295.585938 9368.554688 10286.289062 9373.867188 10277.5 9379.6875 Z M 10277.5 9379.6875 " transform="matrix(0.1, 0, 0, -0.1, 0, 3001)"/>
<path fill-rule="evenodd" fill="rgb(92.576599%, 92.576599%, 92.576599%)" fill-opacity="1" d="M 1284.191406 779.929688 C 1298.941406 832.480469 1333.921875 879.910156 1385.621094 909.761719 C 1437.230469 939.558594 1495.789062 946.101562 1548.71875 932.589844 C 1662.328125 903.601562 1728.539062 788.808594 1696.871094 675.988281 C 1665.039062 562.550781 1546.480469 494.199219 1432.328125 523.339844 C 1318.738281 552.320312 1252.511719 667.109375 1284.191406 779.929688 "/>
<path fill="none" stroke-width="5.0003" stroke-linecap="butt" stroke-linejoin="miter" stroke="rgb(14.501953%, 14.501953%, 14.501953%)" stroke-opacity="1" stroke-miterlimit="2.61313" d="M 12841.914062 22210.703125 C 12989.414062 21685.195312 13339.21875 21210.898438 13856.210938 20912.382812 C 14372.304688 20614.414062 14957.890625 20548.984375 15487.1875 20684.101562 C 16623.28125 20973.984375 17285.390625 22121.914062 16968.710938 23250.117188 C 16650.390625 24384.492188 15464.804688 25068.007812 14323.28125 24776.601562 C 13187.382812 24486.796875 12525.117188 23338.90625 12841.914062 22210.703125 Z M 12841.914062 22210.703125 " transform="matrix(0.1, 0, 0, -0.1, 0, 3001)"/>
<path fill-rule="evenodd" fill="rgb(83.59375%, 83.59375%, 83.59375%)" fill-opacity="1" d="M 898.742188 2067.933594 L 640.894531 1919.058594 L 600.105469 1989.71875 C 597.785156 1994.46875 594.242188 1998.460938 589.925781 2001.328125 C 575.882812 2012.4375 477.445312 2093.242188 461.414062 2186.640625 C 485.027344 2174.226562 515.664062 2166.011719 550.769531 2175.070312 C 555.285156 2171.109375 577.066406 2190.746094 571.925781 2210.660156 C 570.3125 2216.917969 566.789062 2222.179688 562.152344 2225.976562 C 550.769531 2236.644531 453.289062 2332.132812 478.828125 2452.855469 C 543.550781 2379.007812 633.246094 2353.144531 712.867188 2330.203125 C 807.554688 2302.929688 884.769531 2280.648438 853.917969 2162.355469 C 849.710938 2163.324219 855.28125 2142.285156 858.230469 2138.101562 L 898.742188 2067.933594 "/>
<path fill="none" stroke-width="5.0003" stroke-linecap="butt" stroke-linejoin="miter" stroke="rgb(14.501953%, 14.501953%, 14.501953%)" stroke-opacity="1" stroke-miterlimit="2.61313" d="M 8987.421875 9330.664062 L 6408.945312 10819.414062 L 6001.054688 10112.8125 C 5977.851562 10065.3125 5942.421875 10025.390625 5899.257812 9996.71875 C 5758.828125 9885.625 4774.453125 9077.578125 4614.140625 8143.59375 C 4850.273438 8267.734375 5156.640625 8349.882812 5507.695312 8259.296875 C 5552.851562 8298.90625 5770.664062 8102.539062 5719.257812 7903.398438 C 5703.125 7840.820312 5667.890625 7788.203125 5621.523438 7750.234375 C 5507.695312 7643.554688 4532.890625 6688.671875 4788.28125 5481.445312 C 5435.507812 6219.921875 6332.460938 6478.554688 7128.671875 6707.96875 C 8075.546875 6980.703125 8847.695312 7203.515625 8539.179688 8386.445312 C 8497.109375 8376.757812 8552.8125 8587.148438 8582.304688 8628.984375 Z M 8987.421875 9330.664062 " transform="matrix(0.1, 0, 0, -0.1, 0, 3001)"/>
</svg>
